<svg id="Layer_1" enable-background="new 0 0 512 512" height="512" viewBox="0 0 512 512" width="512" xmlns="http://www.w3.org/2000/svg"><g><path d="m498.182 238.75c-.002-.003-.005-.006-.007-.007-18.361-18.366-48.067-18.437-66.508-.127v-223.616c0-8.284-6.716-15-15-15h-401.667c-8.284 0-15 6.716-15 15v449.866c0 8.284 6.716 15 15 15h215.734l-4.693 11.45c-2.297 5.604-.998 12.04 3.292 16.314 4.646 4.629 11.204 5.354 16.327 3.232l74.834-30.997h96.171c8.284 0 15-6.716 15-15v-92.954l66.51-66.513c18.416-18.402 18.449-48.21.007-66.648zm-468.182 211.116v-419.866h371.667v238.608l-140.79 140.783c-1.406 1.406-2.519 3.078-3.273 4.918l-14.574 35.557zm371.666 0h-47.951l47.951-47.953zm-92.664 2.289-41.54 17.207 16.759-40.888 132.432-132.434 24.231 24.231zm167.96-167.968-14.865 14.87-24.228-24.228c4.398-4.396 9.68-9.676 14.876-14.873 6.694-6.698 17.52-6.701 24.216.001l.007.007c6.687 6.682 6.714 17.507-.006 24.223z"/><path d="m303.132 272.066v-49.266h49.267c8.284 0 15-6.716 15-15v-64.267c0-8.284-6.716-15-15-15h-49.267v-49.266c0-8.284-6.716-15-15-15h-64.267c-8.284 0-15 6.716-15 15v49.267h-113.532c-8.284 0-15 6.716-15 15v64.266c0 8.284 6.716 15 15 15h49.267v34.267h-49.267c-8.284 0-15 6.716-15 15v64.267 64.266c0 8.284 6.716 15 15 15h64.267c8.284 0 15-6.716 15-15v-49.267h49.267c8.284 0 15-6.716 15-15v-49.267h49.267c8.283 0 14.998-6.715 14.998-15zm.001-113.533h34.267v34.267h-34.267zm-158.534 227.067h-34.267v-34.267h34.267zm0-64.267h-34.267v-34.267h34.267zm.001-128.533h-34.267v-34.267h34.267zm64.266 128.533h-34.267v-34.267h34.267zm0-64.267h-34.267v-34.266h34.267zm.001-64.266h-34.267v-34.267h34.267zm64.266 64.266h-34.267v-34.266h34.267zm0-64.266h-34.267v-34.267h34.267zm0-64.267h-34.267v-34.266h34.267z"/></g></svg>