<?xml version="1.0" encoding="utf-8"?>
<!-- Svg Vector Icons : http://www.onlinewebfonts.com/icon -->
<!DOCTYPE svg PUBLIC "-//W3C//DTD SVG 1.1//EN" "http://www.w3.org/Graphics/SVG/1.1/DTD/svg11.dtd">
<svg version="1.1" xmlns="http://www.w3.org/2000/svg" xmlns:xlink="http://www.w3.org/1999/xlink" x="0px" y="0px" viewBox="0 0 1000 1000" enable-background="new 0 0 1000 1000" xml:space="preserve">
<metadata> Svg Vector Icons : http://www.onlinewebfonts.com/icon </metadata>
<g><g transform="translate(0.000000,249.000000) scale(0.100000,-0.100000)"><path d="M6417.6,2356.1c-91.4-23.8-55.6-31.8,150.9-35.7c154.9,0,329.7-31.8,401.2-63.6c369.4-174.8,337.6-758.6-47.6-921.5c-270.1-115.2-639.5-51.6-1580.9,258.2c-1052.6,349.6-1382.3,421.1-1942.3,421.1c-369.4-4-484.6-19.9-746.7-111.2c-170.8-55.6-405.2-162.9-516.4-238.3c-286-182.7-607.7-536.2-734.8-806.4c-95.3-206.5-107.3-274-107.3-667.3c0-377.3,11.9-460.7,91.4-623.6c178.7-353.5,579.9-655.4,977.1-726.9L2517-1191l-87.4,115.2c-131.1,182.7-151,484.6-47.7,707c71.5,139,131.1,198.6,293.9,278C3053.2,100,3490.2,40.4,4967.8-404.5c1001-297.9,1509.4-417.1,1819.2-417.1h206.5v-496.5v-492.5l-484.6-429c-266.1-234.3-536.2-472.7-599.8-528.3l-111.2-99.3l595.8-528.3l599.8-528.3v-691.2c0-381.3-11.9-699.1-31.8-711c-15.9-7.9-170.8-47.7-345.6-83.4c-464.7-95.3-1259.2-87.4-1668.3,19.9c-1235.3,317.8-1886.7,1163.8-1886.7,2446.8c0,1072.5,377.3,1823.2,1187.6,2363.4c166.8,111.2,309.8,210.5,317.8,218.5c7.9,7.9-107.2-19.9-258.2-63.6c-1704-468.7-2824.1-1429.9-3161.8-2697c-111.2-425-111.2-1056.6,4-1533.2c345.6-1429.9,1553.1-2438.8,3237.2-2709c297.9-43.7,552.1-55.6,997-39.7c905.6,31.8,1441.8,190.7,2069.4,607.8c715,472.6,1203.5,1251.2,1378.3,2184.6c67.5,353.5,131.1,1128,91.3,1128c-11.9,0-47.7-63.5-79.4-139c-91.3-210.5-385.3-651.4-599.8-885.8c-270.1-297.9-738.8-619.6-1112.2-762.7l-99.3-39.7l4,707v703.1l556.1,476.7c305.9,262.2,572,496.5,591.9,520.4c27.8,27.8-154.9,210.5-552.1,556.1l-595.8,512.4v500.5l-4,500.5l250.2,51.6c699.1,135.1,1239.3,651.4,1382.3,1314.8c59.6,278,27.8,691.1-75.5,917.5c-178.7,405.2-623.6,750.7-1147.9,885.8C7208,2399.8,6624.2,2407.7,6417.6,2356.1z"/><path d="M4848.6-1040l-814.3-329.7l-11.9-1739.8c-4-961.2,0-1763.6,7.9-1791.4c11.9-27.8,309.8,71.5,873.9,297.9l858,345.6v1779.5c0,1394.2-11.9,1775.5-47.7,1771.6C5686.7-706.3,5297.5-857.3,4848.6-1040z"/></g></g>
</svg>